<?xml version="1.0" encoding="UTF-8" standalone="no"?>
<svg
   data-v-2cb57da0=""
   version="1.0"
   width="512"
   height="288"
   viewBox="0 0 512 288"
   preserveAspectRatio="xMidYMid"
   color-interpolation-filters="sRGB"
   id="svg62"
   sodipodi:docname="default-thumbnail.svg"
   inkscape:version="1.2.1 (9c6d41e410, 2022-07-14)"
   inkscape:export-filename="default-thumbnail.png"
   inkscape:export-xdpi="96"
   inkscape:export-ydpi="96"
   xmlns:inkscape="http://www.inkscape.org/namespaces/inkscape"
   xmlns:sodipodi="http://sodipodi.sourceforge.net/DTD/sodipodi-0.dtd"
   xmlns="http://www.w3.org/2000/svg"
   xmlns:svg="http://www.w3.org/2000/svg">
  <sodipodi:namedview
     id="namedview64"
     pagecolor="#ffffff"
     bordercolor="#000000"
     borderopacity="0.25"
     inkscape:showpageshadow="2"
     inkscape:pageopacity="0.0"
     inkscape:pagecheckerboard="0"
     inkscape:deskcolor="#d1d1d1"
     showgrid="false"
     inkscape:zoom="1.411094"
     inkscape:cx="117.99356"
     inkscape:cy="253.70386"
     inkscape:window-width="1920"
     inkscape:window-height="1011"
     inkscape:window-x="0"
     inkscape:window-y="0"
     inkscape:window-maximized="1"
     inkscape:current-layer="svg62" />
  <g
     data-v-2cb57da0=""
     fill="#333333"
     class="icon-text-wrapper icon-svg-group iconsvg"
     transform="matrix(1.5052041,0,0,1.5052041,131.76021,68.739816)"
     id="g58">
    <g
       class="iconsvg-imagesvg"
       transform="translate(52.540165)"
       id="g46">
      <g
         id="g44">
        <rect
           fill="#333333"
           fill-opacity="0"
           stroke-width="2"
           x="0"
           y="0"
           width="60"
           height="65.080864"
           class="image-rect"
           id="rect32" />
        <svg
           x="0"
           y="0"
           width="60"
           height="65.080864"
           filtersec="colorsb1857224266"
           class="image-svg-svg primary"
           style="overflow:visible"
           version="1.1"
           id="svg42">
          <svg
             viewBox="-0.0015643352 -2.7537346e-05 92.193031 100.00003"
             version="1.1"
             id="svg40"
             width="100%"
             height="100%">
            <path
               d="M 76.57,55.43 40.34,19.43 22,1.2 A 14.48,14.48 0 0 0 16.2,0 C 7.37,0 0.19,8.1 0,18.16 V 61.63 A 18.67,18.67 0 0 0 18.43,80.54 H 69.2 a 17.86,17.86 0 0 0 10,-15.92 17.4,17.4 0 0 0 -2.63,-9.19 z"
               fill="#e62c5a"
               opacity="0.8"
               id="path34" />
            <path
               d="M 73.76,19.46 H 23 a 17.86,17.86 0 0 0 -10,15.92 17.46,17.46 0 0 0 2.61,9.2 l 36.23,36 18.39,18.22 A 14.52,14.52 0 0 0 76,100 c 8.82,0 16,-8.09 16.19,-18.15 V 38.36 A 18.67,18.67 0 0 0 73.76,19.46 Z"
               fill="#0fabf6"
               opacity="0.8"
               id="path36" />
            <path
               d="m 15.61,44.58 36.23,36 H 69.2 a 17.86,17.86 0 0 0 10,-15.92 17.4,17.4 0 0 0 -2.62,-9.19 l -36.23,-36 H 23 a 17.86,17.86 0 0 0 -10,15.91 17.46,17.46 0 0 0 2.61,9.2 z"
               fill="#501b8d"
               opacity="0.5"
               id="path38" />
          </svg>
        </svg>
        <!---->
      </g>
    </g>
    <g
       transform="translate(0,72.080864)"
       id="g56"
       style="fill:#000000">
      <g
         data-gra="path-name"
         fill-rule=""
         class="tp-name iconsvg-namesvg"
         id="g54"
         style="fill:#000000">
        <g
           transform="scale(0.36)"
           id="g52"
           style="fill:#000000">
          <g
             id="g50"
             style="fill:#000000">
            <path
               d="m 31.35,-16.57 c 0,7.12 -6.9,12.44 -14.17,12.44 -6.3,0 -11.78,-3.97 -12.23,-10.79 -0.3,-4.05 -5.77,-3.38 -5.55,0.07 0.53,9 8.25,15.75 17.78,15.75 9.89,0 19.42,-7.35 19.34,-17.47 V -45.3 c -0.14,-1.35 -1.35,-2.47 -2.7,-2.47 H 16.95 c -3.75,0 -3.75,4.95 0,4.95 h 14.4 z m 13.72,6.07 c 2.48,9 14.18,11.63 21.83,11.63 9.23,0 22.05,-3.53 22.05,-15.01 0,-11.25 -11.03,-11.77 -21.3,-12.67 -8.7,-0.67 -16.2,-1.35 -16.2,-7.87 0,-6.83 9.75,-8.85 14.77,-8.85 5.41,0 13.43,0.97 15.68,6.67 1.13,2.55 6.23,1.2 5.1,-1.8 -3.15,-8.55 -12.98,-10.42 -20.85,-10.42 -9.15,0 -20.55,4.42 -20.55,14.32 0,11.18 11.1,12.15 21.45,12.98 8.25,0.67 16.12,1.2 16.12,7.72 0,7.58 -9.9,9.53 -16.27,9.53 -6,0 -14.33,-1.36 -16.27,-7.58 -0.61,-3.07 -6.46,-1.95 -5.56,1.35 z m 74.18,-36.45 c -1.28,-3.22 -6.75,-1.28 -5.55,2.1 l 19.5,44.18 c 0.97,2.39 4.35,1.94 5.25,0.07 l 16.5,-33.9 16.43,33.9 c 1.12,2.32 4.04,2.17 5.09,-0.07 l 19.66,-44.18 c 1.12,-3.97 -4.28,-5.25 -5.48,-2.1 l -16.73,38.7 -16.35,-33.45 c -1.19,-2.1 -4.42,-2.1 -5.25,0.07 l -16.27,33.38 z m 86.03,45.07 c 0,3.6 5.62,3.45 5.62,0 v -44.85 c 0,-3.67 -5.62,-3.75 -5.62,0 z M 226.5,-42.9 h 14.4 c 11.25,0 16.87,9.6 16.87,19.05 0,9.45 -5.62,18.97 -16.87,18.97 H 226.5 Z M 240.9,0 c 14.92,0 22.35,-11.92 22.35,-23.85 0,-11.92 -7.43,-23.85 -22.35,-23.85 h -16.35 c -1.88,0 -3.45,1.43 -3.45,3.15 v 41.32 c 0,1.73 1.57,3.23 3.45,3.23 z m 72.82,-10.8 v -12.52 c 0,-1.65 -0.67,-2.78 -2.84,-2.78 h -15.91 c -3.15,0 -3.52,4.95 0,4.95 h 13.5 v 9.98 c -3.29,4.42 -9.07,6.82 -14.62,6.75 -9.67,-0.23 -18.22,-9.08 -18.38,-19.65 0,-9.83 7.21,-17.1 15.46,-19.06 5.62,-1.42 12.59,0.31 16.79,5.18 2.33,2.7 6.16,-0.9 3.91,-3.53 -4.13,-4.79 -11.11,-7.04 -17.63,-7.04 -1.35,0 -2.78,0.07 -3.9,0.22 -11.47,2.17 -20.03,12.6 -20.03,24 -0.3,14.17 10.81,24.9 23.7,24.97 7.28,0.08 14.7,-3.15 19.13,-8.99 0.67,-0.68 0.82,-1.65 0.82,-2.48 z m 16.13,-10.42 h 28.2 c 3.15,0 3,-4.8 0,-4.8 h -28.2 V -42.9 h 29.63 c 3.15,0 3.29,-4.8 0.07,-4.8 H 327.9 c -2.1,0 -3.45,1.5 -3.45,3.22 V -3.3 c 0,1.8 1.35,3.3 3.45,3.3 h 31.58 c 3.59,0 3.15,-4.95 0,-4.95 h -29.63 z m 40.2,-26.55 c -3.53,0 -3.53,5.17 0,5.17 h 16.65 v 40.72 c 0,1.88 1.43,2.78 2.7,2.78 1.28,0 2.85,-0.9 2.85,-2.78 0,-13.5 -0.07,-27.22 -0.07,-40.72 h 16.72 c 3.67,0 3.67,-5.17 0,-5.17 z m 44.02,37.27 c 2.48,9 14.18,11.63 21.83,11.63 9.23,0 22.05,-3.53 22.05,-15.01 0,-11.25 -11.02,-11.77 -21.3,-12.67 -8.7,-0.67 -16.2,-1.35 -16.2,-7.87 0,-6.83 9.75,-8.85 14.78,-8.85 5.4,0 13.42,0.97 15.67,6.67 1.13,2.55 6.23,1.2 5.1,-1.8 -3.15,-8.55 -12.97,-10.42 -20.85,-10.42 -9.15,0 -20.55,4.42 -20.55,14.32 0,11.18 11.1,12.15 21.45,12.98 8.25,0.67 16.13,1.2 16.13,7.72 0,7.58 -9.9,9.53 -16.28,9.53 -6,0 -14.33,-1.36 -16.27,-7.58 -0.6,-3.07 -6.45,-1.95 -5.56,1.35 z"
               transform="translate(0.60646009,49.512581)"
               id="path48"
               style="fill:#000000;fill-opacity:1" />
          </g>
          <!---->
          <!---->
          <!---->
          <!---->
          <!---->
          <!---->
          <!---->
        </g>
      </g>
      <!---->
    </g>
  </g>
  <defs
     v-gra="od"
     id="defs60" />
</svg>
